# Wavefront OBJ file automatically generated by Tiled2Unity

# Vertices (Count = 48)
v -10.5 -10.5 0
v -11.2 -10.5 0
v -11.2 -9.8 0
v -10.5 -9.8 0
v -11.9 -10.5 0
v -11.9 -9.8 0
v -12.6 -10.5 0
v -12.6 -9.8 0
v -13.3 -10.5 0
v -13.3 -9.8 0
v -14 -10.5 0
v -14 -9.8 0
v -14.7 -10.5 0
v -14.7 -9.8 0
v -15.4 -10.5 0
v -15.4 -9.8 0
v -16.1 -10.5 0
v -16.1 -9.8 0
v -16.8 -10.5 0
v -16.8 -9.8 0
v -17.5 -10.5 0
v -17.5 -9.8 0
v -18.2 -10.5 0
v -18.2 -9.8 0
v -18.9 -10.5 0
v -18.9 -9.8 0
v -19.6 -10.5 0
v -19.6 -9.8 0
v -20.3 -10.5 0
v -20.3 -9.8 0
v -21 -10.5 0
v -21 -9.8 0
v -21.7 -10.5 0
v -21.7 -9.8 0
v -22.4 -10.5 0
v -22.4 -9.8 0
v -23.1 -10.5 0
v -23.1 -9.8 0
v -23.8 -10.5 0
v -23.8 -9.8 0
v -24.5 -10.5 0
v -24.5 -9.8 0
v -25.2 -10.5 0
v -25.2 -9.8 0
v -25.9 -10.5 0
v -25.9 -9.8 0
v -26.6 -10.5 0
v -26.6 -9.8 0

# Texture cooridinates (Count = 4)
vt 0.5515444 0.3099511
vt 0.6278867 0.3099511
vt 0.6278867 0.3844933
vt 0.5515444 0.3844933

# Normal
vn 0 0 -1

# Groups (Count = 2)

g mesh_0001
f 1/1/1 2/2/1 3/3/1 4/4/1
f 2/1/1 5/2/1 6/3/1 3/4/1
f 5/1/1 7/2/1 8/3/1 6/4/1
f 7/1/1 9/2/1 10/3/1 8/4/1
f 9/1/1 11/2/1 12/3/1 10/4/1
f 11/1/1 13/2/1 14/3/1 12/4/1
f 13/1/1 15/2/1 16/3/1 14/4/1
f 15/1/1 17/2/1 18/3/1 16/4/1
f 17/1/1 19/2/1 20/3/1 18/4/1
f 19/1/1 21/2/1 22/3/1 20/4/1
f 21/1/1 23/2/1 24/3/1 22/4/1
f 23/1/1 25/2/1 26/3/1 24/4/1
f 25/1/1 27/2/1 28/3/1 26/4/1
f 27/1/1 29/2/1 30/3/1 28/4/1
f 29/1/1 31/2/1 32/3/1 30/4/1
f 31/1/1 33/2/1 34/3/1 32/4/1
f 33/1/1 35/2/1 36/3/1 34/4/1
f 35/1/1 37/2/1 38/3/1 36/4/1
f 37/1/1 39/2/1 40/3/1 38/4/1
f 39/1/1 41/2/1 42/3/1 40/4/1
f 41/1/1 43/2/1 44/3/1 42/4/1
f 43/1/1 45/2/1 46/3/1 44/4/1
f 45/1/1 47/2/1 48/3/1 46/4/1

